<mxfile host="app.diagrams.net" agent="Mozilla/5.0 (Macintosh; Intel Mac OS X 10_15_7) AppleWebKit/537.36 (KHTML, like Gecko) Chrome/125.0.0.0 Safari/537.36" version="24.7.6">
  <diagram name="Page-1" id="WuCFycTn-9tcVs_f61hR">
    <mxGraphModel dx="909" dy="610" grid="1" gridSize="10" guides="1" tooltips="1" connect="1" arrows="1" fold="1" page="1" pageScale="1" pageWidth="850" pageHeight="1100" math="0" shadow="0">
      <root>
        <mxCell id="0" />
        <mxCell id="1" parent="0" />
        <mxCell id="Xb97lQy-G62jpk4SuOYI-2" value="&lt;b&gt;Article Overload Bot&lt;/b&gt;" style="html=1;whiteSpace=wrap;verticalAlign=top;" vertex="1" parent="1">
          <mxGeometry x="180" y="132" width="190" height="130" as="geometry" />
        </mxCell>
        <mxCell id="Xb97lQy-G62jpk4SuOYI-3" value="Player 1" style="html=1;whiteSpace=wrap;" vertex="1" parent="1">
          <mxGeometry x="130" y="340" width="132" height="60" as="geometry" />
        </mxCell>
        <mxCell id="Xb97lQy-G62jpk4SuOYI-4" value="&lt;b&gt;SQLite (Bot&#39;s DB)&lt;/b&gt;" style="shape=cylinder;whiteSpace=wrap;html=1;boundedLbl=1;backgroundOutline=1;verticalAlign=top;spacingTop=12;" vertex="1" parent="1">
          <mxGeometry x="490" y="110" width="120" height="160" as="geometry" />
        </mxCell>
        <mxCell id="Xb97lQy-G62jpk4SuOYI-6" value="&lt;u&gt;Game Management&lt;br&gt;&lt;/u&gt;- Initialize the game&lt;br&gt;- Manage Players&lt;br&gt;- Handle Game Logic" style="text;html=1;align=left;verticalAlign=middle;whiteSpace=wrap;rounded=0;" vertex="1" parent="1">
          <mxGeometry x="215" y="170" width="180" height="70" as="geometry" />
        </mxCell>
        <mxCell id="Xb97lQy-G62jpk4SuOYI-7" value="&lt;u&gt;Database Handler&lt;br&gt;&lt;/u&gt;- Save Game Data&lt;br&gt;- Retrieve Game Logic" style="text;html=1;align=left;verticalAlign=middle;whiteSpace=wrap;rounded=0;" vertex="1" parent="1">
          <mxGeometry x="500" y="188" width="110" height="70" as="geometry" />
        </mxCell>
        <mxCell id="Xb97lQy-G62jpk4SuOYI-8" value="" style="endArrow=classic;html=1;rounded=0;entryX=1;entryY=0.5;entryDx=0;entryDy=0;exitX=0.008;exitY=0.544;exitDx=0;exitDy=0;exitPerimeter=0;dashed=1;" edge="1" parent="1" source="Xb97lQy-G62jpk4SuOYI-4" target="Xb97lQy-G62jpk4SuOYI-2">
          <mxGeometry width="50" height="50" relative="1" as="geometry">
            <mxPoint x="510" y="230" as="sourcePoint" />
            <mxPoint x="560" y="180" as="targetPoint" />
          </mxGeometry>
        </mxCell>
        <mxCell id="Xb97lQy-G62jpk4SuOYI-9" value="Player 2" style="html=1;whiteSpace=wrap;" vertex="1" parent="1">
          <mxGeometry x="284" y="340" width="132" height="60" as="geometry" />
        </mxCell>
        <mxCell id="Xb97lQy-G62jpk4SuOYI-13" value="" style="endArrow=none;html=1;rounded=0;dashed=1;" edge="1" parent="1">
          <mxGeometry width="50" height="50" relative="1" as="geometry">
            <mxPoint x="200" y="340" as="sourcePoint" />
            <mxPoint x="200" y="290" as="targetPoint" />
          </mxGeometry>
        </mxCell>
        <mxCell id="Xb97lQy-G62jpk4SuOYI-15" value="" style="endArrow=none;html=1;rounded=0;dashed=1;" edge="1" parent="1">
          <mxGeometry width="50" height="50" relative="1" as="geometry">
            <mxPoint x="200" y="290" as="sourcePoint" />
            <mxPoint x="250" y="290" as="targetPoint" />
          </mxGeometry>
        </mxCell>
        <mxCell id="Xb97lQy-G62jpk4SuOYI-16" value="" style="endArrow=none;html=1;rounded=0;dashed=1;" edge="1" parent="1">
          <mxGeometry width="50" height="50" relative="1" as="geometry">
            <mxPoint x="349.5" y="340" as="sourcePoint" />
            <mxPoint x="349.5" y="290" as="targetPoint" />
          </mxGeometry>
        </mxCell>
        <mxCell id="Xb97lQy-G62jpk4SuOYI-17" value="" style="endArrow=none;html=1;rounded=0;dashed=1;" edge="1" parent="1">
          <mxGeometry width="50" height="50" relative="1" as="geometry">
            <mxPoint x="300" y="290" as="sourcePoint" />
            <mxPoint x="350" y="290" as="targetPoint" />
          </mxGeometry>
        </mxCell>
        <mxCell id="Xb97lQy-G62jpk4SuOYI-18" value="" style="endArrow=classic;html=1;rounded=0;dashed=1;" edge="1" parent="1">
          <mxGeometry width="50" height="50" relative="1" as="geometry">
            <mxPoint x="250" y="290" as="sourcePoint" />
            <mxPoint x="250" y="260" as="targetPoint" />
          </mxGeometry>
        </mxCell>
        <mxCell id="Xb97lQy-G62jpk4SuOYI-19" value="" style="endArrow=classic;html=1;rounded=0;dashed=1;" edge="1" parent="1">
          <mxGeometry width="50" height="50" relative="1" as="geometry">
            <mxPoint x="300" y="292" as="sourcePoint" />
            <mxPoint x="300" y="262" as="targetPoint" />
          </mxGeometry>
        </mxCell>
        <mxCell id="Xb97lQy-G62jpk4SuOYI-20" value="&lt;b&gt;Discord Server&lt;/b&gt;" style="html=1;whiteSpace=wrap;verticalAlign=top;" vertex="1" parent="1">
          <mxGeometry x="180" y="450" width="190" height="130" as="geometry" />
        </mxCell>
        <mxCell id="Xb97lQy-G62jpk4SuOYI-21" value="&lt;u&gt;Discord Client&lt;br&gt;&lt;/u&gt;- User Commands&lt;br&gt;- Interactions" style="text;html=1;align=left;verticalAlign=middle;whiteSpace=wrap;rounded=0;" vertex="1" parent="1">
          <mxGeometry x="210" y="480" width="180" height="70" as="geometry" />
        </mxCell>
        <mxCell id="Xb97lQy-G62jpk4SuOYI-23" value="&lt;b&gt;Discord DB&lt;/b&gt;" style="shape=cylinder;whiteSpace=wrap;html=1;boundedLbl=1;backgroundOutline=1;verticalAlign=top;spacingTop=12;" vertex="1" parent="1">
          <mxGeometry x="490" y="440" width="120" height="160" as="geometry" />
        </mxCell>
        <mxCell id="Xb97lQy-G62jpk4SuOYI-24" value="- User&#39;s Profile&lt;br&gt;- Messages&lt;br&gt;- Server Config" style="text;html=1;align=left;verticalAlign=middle;whiteSpace=wrap;rounded=0;" vertex="1" parent="1">
          <mxGeometry x="495" y="520" width="110" height="70" as="geometry" />
        </mxCell>
        <mxCell id="Xb97lQy-G62jpk4SuOYI-25" value="" style="endArrow=classic;html=1;rounded=0;dashed=1;entryX=0.889;entryY=0.571;entryDx=0;entryDy=0;entryPerimeter=0;" edge="1" parent="1" target="Xb97lQy-G62jpk4SuOYI-21">
          <mxGeometry width="50" height="50" relative="1" as="geometry">
            <mxPoint x="490" y="520" as="sourcePoint" />
            <mxPoint x="380" y="520" as="targetPoint" />
          </mxGeometry>
        </mxCell>
        <mxCell id="Xb97lQy-G62jpk4SuOYI-27" value="" style="endArrow=classic;html=1;rounded=0;entryX=0.5;entryY=1;entryDx=0;entryDy=0;exitX=0.084;exitY=-0.008;exitDx=0;exitDy=0;exitPerimeter=0;dashed=1;" edge="1" parent="1" source="Xb97lQy-G62jpk4SuOYI-20" target="Xb97lQy-G62jpk4SuOYI-3">
          <mxGeometry width="50" height="50" relative="1" as="geometry">
            <mxPoint x="200" y="450" as="sourcePoint" />
            <mxPoint x="250" y="400" as="targetPoint" />
          </mxGeometry>
        </mxCell>
        <mxCell id="Xb97lQy-G62jpk4SuOYI-28" value="" style="endArrow=classic;html=1;rounded=0;entryX=0.5;entryY=1;entryDx=0;entryDy=0;exitX=0.084;exitY=-0.008;exitDx=0;exitDy=0;exitPerimeter=0;dashed=1;" edge="1" parent="1">
          <mxGeometry width="50" height="50" relative="1" as="geometry">
            <mxPoint x="349.5" y="449" as="sourcePoint" />
            <mxPoint x="349.5" y="400" as="targetPoint" />
          </mxGeometry>
        </mxCell>
      </root>
    </mxGraphModel>
  </diagram>
</mxfile>
